<svg width="20" height="20" viewBox="0 0 20 20" fill="none" xmlns="http://www.w3.org/2000/svg">
<g id="ep:arrow-up">
<path id="Vector" d="M10.4361 12.8347L16.8336 6.89447C16.9404 6.79535 17 6.66367 17 6.52674C17 6.3898 16.9404 6.25812 16.8336 6.159L16.8264 6.15261C16.7746 6.10439 16.7123 6.066 16.6432 6.03976C16.5742 6.01353 16.4998 6 16.4246 6C16.3494 6 16.275 6.01353 16.206 6.03976C16.1369 6.066 16.0746 6.10439 16.0228 6.15261L9.9988 11.7464L3.97721 6.15261C3.92543 6.10439 3.86311 6.066 3.79404 6.03976C3.72496 6.01353 3.65058 6 3.57541 6C3.50024 6 3.42585 6.01353 3.35678 6.03976C3.2877 6.066 3.22538 6.10439 3.17361 6.15261L3.16638 6.159C3.05958 6.25812 3 6.3898 3 6.52674C3 6.66367 3.05958 6.79535 3.16638 6.89447L9.56386 12.8347C9.62012 12.8869 9.68779 12.9285 9.76276 12.9569C9.83773 12.9853 9.91844 13 10 13C10.0816 13 10.1623 12.9853 10.2372 12.9569C10.3122 12.9285 10.3799 12.8869 10.4361 12.8347Z" fill="black"/>
</g>
</svg>
