<svg width="16" height="16" viewBox="0 0 16 16" fill="none" xmlns="http://www.w3.org/2000/svg">
<path d="M14.3635 5.293C14.1759 5.10553 13.9216 5.00021 13.6565 5.00021C13.3913 5.00021 13.137 5.10553 12.9495 5.293L7.99946 10.243L3.04946 5.293C2.86086 5.11084 2.60826 5.01005 2.34606 5.01233C2.08387 5.01461 1.83305 5.11977 1.64764 5.30518C1.46224 5.49059 1.35707 5.7414 1.35479 6.0036C1.35251 6.2658 1.45331 6.5184 1.63546 6.707L7.29246 12.364C7.47999 12.5515 7.7343 12.6568 7.99946 12.6568C8.26463 12.6568 8.51894 12.5515 8.70646 12.364L14.3635 6.707C14.5509 6.51947 14.6562 6.26516 14.6562 6C14.6562 5.73484 14.5509 5.48053 14.3635 5.293Z" fill="#737373"/>
</svg>
