<svg width="12" height="14" viewBox="0 0 12 14" fill="none" xmlns="http://www.w3.org/2000/svg">
<path fill-rule="evenodd" clip-rule="evenodd" d="M6.6669 1.00001C6.6669 0.823199 6.59666 0.65363 6.47164 0.528606C6.34661 0.403581 6.17704 0.333344 6.00023 0.333344C5.82342 0.333344 5.65385 0.403581 5.52883 0.528606C5.4038 0.65363 5.33356 0.823199 5.33356 1.00001V1.50001H4.96223C4.24758 1.49996 3.55978 1.77227 3.03885 2.2615C2.51791 2.75073 2.203 3.4201 2.15823 4.13334L2.0109 6.48934C1.95472 7.38764 1.6531 8.2533 1.1389 8.99201C1.03265 9.14472 0.967736 9.32232 0.95046 9.50755C0.933183 9.69278 0.964136 9.87933 1.04031 10.0491C1.11648 10.2188 1.23527 10.3659 1.38514 10.4761C1.53501 10.5863 1.71085 10.6559 1.89556 10.678L4.1669 10.95V11.6667C4.1669 12.1529 4.36005 12.6192 4.70387 12.963C5.04769 13.3069 5.514 13.5 6.00023 13.5C6.48646 13.5 6.95278 13.3069 7.29659 12.963C7.64041 12.6192 7.83356 12.1529 7.83356 11.6667V10.95L10.1049 10.6773C10.2895 10.6552 10.4652 10.5856 10.615 10.4754C10.7648 10.3652 10.8835 10.2182 10.9597 10.0486C11.0358 9.87896 11.0668 9.69253 11.0496 9.50739C11.0324 9.32225 10.9676 9.14471 10.8616 8.99201C10.3473 8.25331 10.0457 7.38765 9.98956 6.48934L9.84223 4.13401C9.79762 3.42065 9.48279 2.75111 8.96183 2.26174C8.44088 1.77238 7.75299 1.49997 7.03823 1.50001H6.6669V1.00001ZM4.96223 2.50001C4.50195 2.49995 4.05894 2.67532 3.72342 2.99042C3.38789 3.30551 3.18506 3.73663 3.15623 4.19601L3.00956 6.55201C2.94179 7.63266 2.57884 8.67401 1.96023 9.56268C1.95254 9.57372 1.94784 9.58657 1.94659 9.59996C1.94533 9.61336 1.94757 9.62685 1.95307 9.63914C1.95857 9.65141 1.96716 9.66206 1.97799 9.67004C1.98882 9.67802 2.00154 9.68306 2.0149 9.68468L4.50623 9.98401C5.4989 10.1027 6.50156 10.1027 7.49423 9.98401L9.98556 9.68468C9.99892 9.68306 10.0116 9.67802 10.0225 9.67004C10.0333 9.66206 10.0419 9.65141 10.0474 9.63914C10.0529 9.62685 10.0551 9.61336 10.0539 9.59996C10.0526 9.58657 10.0479 9.57372 10.0402 9.56268C9.42185 8.67394 9.05914 7.6326 8.99156 6.55201L8.84423 4.19601C8.8154 3.73663 8.61257 3.30551 8.27705 2.99042C7.94152 2.67532 7.49852 2.49995 7.03823 2.50001H4.96223ZM6.00023 12.5C5.54023 12.5 5.1669 12.1267 5.1669 11.6667V11.1667H6.83356V11.6667C6.83356 12.1267 6.46023 12.5 6.00023 12.5Z" fill="white"/>
</svg>
