<svg width="12" height="14" viewBox="0 0 12 14" fill="none" xmlns="http://www.w3.org/2000/svg">
<path fill-rule="evenodd" clip-rule="evenodd" d="M6.66665 1.00001C6.66665 0.823199 6.59642 0.65363 6.47139 0.528606C6.34637 0.403581 6.1768 0.333344 5.99999 0.333344C5.82318 0.333344 5.65361 0.403581 5.52858 0.528606C5.40356 0.65363 5.33332 0.823199 5.33332 1.00001V1.50001H4.96199C4.24734 1.49996 3.55954 1.77227 3.0386 2.2615C2.51767 2.75073 2.20276 3.4201 2.15799 4.13334L2.01065 6.48934C1.95447 7.38764 1.65285 8.2533 1.13865 8.99201C1.03241 9.14472 0.967492 9.32232 0.950216 9.50755C0.932939 9.69278 0.963891 9.87933 1.04006 10.0491C1.11623 10.2188 1.23503 10.3659 1.3849 10.4761C1.53477 10.5863 1.71061 10.6559 1.89532 10.678L4.16665 10.95V11.6667C4.16665 12.1529 4.35981 12.6192 4.70362 12.963C5.04744 13.3069 5.51376 13.5 5.99999 13.5C6.48622 13.5 6.95253 13.3069 7.29635 12.963C7.64017 12.6192 7.83332 12.1529 7.83332 11.6667V10.95L10.1047 10.6773C10.2893 10.6552 10.465 10.5856 10.6148 10.4754C10.7645 10.3652 10.8833 10.2182 10.9594 10.0486C11.0356 9.87896 11.0666 9.69253 11.0494 9.50739C11.0322 9.32225 10.9674 9.14471 10.8613 8.99201C10.3471 8.25331 10.0455 7.38765 9.98932 6.48934L9.84199 4.13401C9.79738 3.42065 9.48254 2.75111 8.96159 2.26174C8.44063 1.77238 7.75274 1.49997 7.03799 1.50001H6.66665V1.00001ZM4.96199 2.50001C4.5017 2.49995 4.0587 2.67532 3.72317 2.99042C3.38765 3.30551 3.18482 3.73663 3.15599 4.19601L3.00932 6.55201C2.94155 7.63266 2.5786 8.67401 1.95999 9.56268C1.9523 9.57372 1.9476 9.58657 1.94634 9.59996C1.94509 9.61336 1.94732 9.62685 1.95282 9.63914C1.95833 9.65141 1.96691 9.66206 1.97775 9.67004C1.98858 9.67802 2.00129 9.68306 2.01465 9.68468L4.50599 9.98401C5.49865 10.1027 6.50132 10.1027 7.49399 9.98401L9.98532 9.68468C9.99868 9.68306 10.0114 9.67802 10.0222 9.67004C10.0331 9.66206 10.0416 9.65141 10.0472 9.63914C10.0527 9.62685 10.0549 9.61336 10.0536 9.59996C10.0524 9.58657 10.0477 9.57372 10.04 9.56268C9.42161 8.67394 9.05889 7.6326 8.99132 6.55201L8.84399 4.19601C8.81516 3.73663 8.61233 3.30551 8.2768 2.99042C7.94127 2.67532 7.49827 2.49995 7.03799 2.50001H4.96199ZM5.99999 12.5C5.53999 12.5 5.16665 12.1267 5.16665 11.6667V11.1667H6.83332V11.6667C6.83332 12.1267 6.45999 12.5 5.99999 12.5Z" fill="#8E00FF"/>
</svg>
