<svg width="14" height="15" viewBox="0 0 14 15" fill="none" xmlns="http://www.w3.org/2000/svg">
<path d="M7.62103 15C7.23031 14.9998 6.84015 14.9703 6.4538 14.9118C4.76182 14.6434 3.20864 13.8128 2.04316 12.5532C0.877677 11.2936 0.167373 9.67795 0.026073 7.9651C-0.115227 6.25224 0.320659 4.54138 1.26388 3.10668C2.2071 1.67197 3.60304 0.596491 5.22801 0.052582C5.4019 -0.00673127 5.58886 -0.0160725 5.76777 0.0256134C5.94667 0.0672994 6.11039 0.158351 6.24044 0.288483C6.38135 0.42651 6.48136 0.601028 6.52936 0.79265C6.57737 0.984271 6.57149 1.18549 6.51237 1.37396C6.2892 2.10207 6.18936 2.86259 6.21701 3.62384C6.28006 4.81783 6.64951 5.97521 7.28956 6.98378C7.92961 7.99235 8.81852 8.81788 9.87013 9.38033C10.8173 9.91943 11.8862 10.2064 12.9752 10.214C13.1648 10.2166 13.3501 10.2713 13.511 10.372C13.6719 10.4727 13.8022 10.6157 13.8879 10.7855C13.9736 10.9553 14.0113 11.1453 13.997 11.335C13.9828 11.5248 13.917 11.707 13.8069 11.8619C13.0946 12.8364 12.1632 13.6285 11.0883 14.1738C10.0134 14.719 8.82547 15.0021 7.62103 15ZM5.54596 0.840039C5.52746 0.840239 5.50911 0.843355 5.49158 0.849273C4.47438 1.18796 3.55124 1.76279 2.79727 2.52702C2.04329 3.29124 1.47979 4.22325 1.1526 5.24723C0.825412 6.27121 0.743781 7.35823 0.914351 8.41984C1.08492 9.48144 1.50287 10.4877 2.1342 11.3566C2.76553 12.2255 3.5924 12.9327 4.54753 13.4205C5.50266 13.9083 6.55908 14.1629 7.63082 14.1637C8.70257 14.1645 9.75937 13.9115 10.7152 13.4251C11.6711 12.9388 12.499 12.2329 13.1317 11.3649C13.1515 11.3363 13.1631 11.3027 13.165 11.2678C13.1669 11.233 13.1591 11.1983 13.1425 11.1676C13.1274 11.1343 13.1032 11.1058 13.0727 11.0856C13.0423 11.0655 13.0067 11.0543 12.9702 11.0535C11.7416 11.0457 10.5354 10.7233 9.46599 10.1166C8.28776 9.48339 7.29252 8.55557 6.5767 7.42305C5.86089 6.29052 5.44877 4.99168 5.38029 3.65238C5.35057 2.7978 5.4637 1.94425 5.71498 1.12715C5.72778 1.08575 5.72916 1.04166 5.719 0.999531C5.70884 0.957408 5.6875 0.91883 5.65725 0.88789C5.64288 0.872782 5.62562 0.860753 5.60649 0.852528C5.58736 0.844303 5.56677 0.840055 5.54596 0.840039Z" fill="#555555"/>
</svg>
