<svg width="24" height="24" viewBox="0 0 24 24" fill="none" xmlns="http://www.w3.org/2000/svg">
<g clip-path="url(#clip0_1021_1256)">
<path d="M4 4.99999C4.00002 4.86701 4.02656 4.73537 4.07807 4.61277C4.12959 4.49017 4.20503 4.37908 4.3 4.28599C5.38984 3.21763 6.84585 2.60472 8.37166 2.57203C9.89746 2.53933 11.3784 3.0893 12.513 4.10999L12.864 4.43799C13.5934 5.07709 14.5302 5.42942 15.5 5.42942C16.4698 5.42942 17.4066 5.07709 18.136 4.43799L18.385 4.21099C18.995 3.72799 19.912 4.11399 19.995 4.88699L20 4.99999V14C20 14.133 19.9734 14.2646 19.9219 14.3872C19.8704 14.5098 19.795 14.6209 19.7 14.714C18.6102 15.7824 17.1542 16.3953 15.6283 16.428C14.1025 16.4607 12.6216 15.9107 11.487 14.89L11.136 14.562C10.4295 13.943 9.52777 13.5924 8.58872 13.5715C7.64967 13.5507 6.73323 13.861 6 14.448V21C5.99972 21.2549 5.90212 21.5 5.72715 21.6854C5.55218 21.8707 5.31305 21.9822 5.05861 21.9972C4.80416 22.0121 4.55362 21.9293 4.35817 21.7657C4.16271 21.6021 4.0371 21.3701 4.007 21.117L4 21V4.99999Z" fill="black"/>
</g>
<defs>
<clipPath id="clip0_1021_1256">
<rect width="24" height="24" fill="white"/>
</clipPath>
</defs>
</svg> 