<svg width="24" height="24" viewBox="0 0 24 24" fill="none" xmlns="http://www.w3.org/2000/svg">
<g id="ion:heart-dislike">
<path id="Vector" d="M19.5863 21C19.4874 21 19.3895 20.9805 19.2982 20.9425C19.2069 20.9046 19.124 20.8489 19.0543 20.7788L1.90556 3.52878C1.76532 3.38767 1.68689 3.19664 1.6875 2.99771C1.68812 2.79877 1.76774 2.60823 1.90884 2.468C2.04994 2.32776 2.24097 2.24933 2.43991 2.24994C2.63884 2.25056 2.82939 2.33017 2.96962 2.47128L20.1179 19.7213C20.2223 19.8263 20.2933 19.9599 20.3219 20.1053C20.3505 20.2506 20.3354 20.4011 20.2785 20.5379C20.2217 20.6747 20.1256 20.7916 20.0024 20.8738C19.8792 20.956 19.7345 21 19.5863 21ZM17.1057 3.75003C15.039 3.75003 13.6084 4.91347 12.7749 5.88284C12.7485 5.91324 12.7159 5.93761 12.6793 5.95432C12.6426 5.97102 12.6029 5.97967 12.5626 5.97967C12.5223 5.97967 12.4825 5.97102 12.4459 5.95432C12.4093 5.93761 12.3766 5.91324 12.3502 5.88284C11.5168 4.91347 10.0857 3.75003 8.01946 3.75003C7.52731 3.74976 7.03775 3.82146 6.56634 3.96284L19.1818 16.6519C19.3224 16.4907 19.449 16.3407 19.5634 16.2019C21.4384 13.9167 22.336 11.5711 22.3107 9.03003C22.2831 6.11862 19.9473 3.75003 17.1057 3.75003ZM3.23446 6.99143C2.96278 7.63712 2.81949 8.32955 2.81259 9.03003C2.78728 11.5711 3.68587 13.9167 5.55993 16.2019C6.43978 17.2739 8.03493 18.9886 11.7188 21.4894C11.9674 21.6594 12.2615 21.7504 12.5626 21.7504C12.8637 21.7504 13.1578 21.6594 13.4063 21.4894C14.3602 20.8416 15.1735 20.2472 15.871 19.7025L3.23446 6.99143Z" fill="black"/>
</g>
</svg>
