<svg width="24" height="24" viewBox="0 0 24 24" fill="none" xmlns="http://www.w3.org/2000/svg">
<path d="M19.2857 3.2143C19.2857 3.0438 19.218 2.88029 19.0975 2.75973C18.9769 2.63917 18.8134 2.57144 18.6429 2.57144C18.4724 2.57144 18.3089 2.63917 18.1883 2.75973C18.0678 2.88029 18 3.0438 18 3.2143V4.28573H16.9286C16.7581 4.28573 16.5946 4.35346 16.474 4.47402C16.3535 4.59457 16.2857 4.75809 16.2857 4.92858C16.2857 5.09908 16.3535 5.26259 16.474 5.38315C16.5946 5.50371 16.7581 5.57144 16.9286 5.57144H18V6.64287C18 6.81337 18.0678 6.97688 18.1883 7.09744C18.3089 7.218 18.4724 7.28573 18.6429 7.28573C18.8134 7.28573 18.9769 7.218 19.0975 7.09744C19.218 6.97688 19.2857 6.81337 19.2857 6.64287V5.57144H20.3572C20.5277 5.57144 20.6912 5.50371 20.8117 5.38315C20.9323 5.26259 21 5.09908 21 4.92858C21 4.75809 20.9323 4.59457 20.8117 4.47402C20.6912 4.35346 20.5277 4.28573 20.3572 4.28573H19.2857V3.2143ZM6.64289 4.7143C6.81338 4.7143 6.9769 4.78203 7.09746 4.90259C7.21801 5.02315 7.28574 5.18666 7.28574 5.35716V6.42858H8.35717C8.52767 6.42858 8.69118 6.49631 8.81174 6.61687C8.9323 6.73743 9.00003 6.90095 9.00003 7.07144C9.00003 7.24194 8.9323 7.40545 8.81174 7.52601C8.69118 7.64657 8.52767 7.7143 8.35717 7.7143H7.28574V8.78573C7.28574 8.95622 7.21801 9.11974 7.09746 9.2403C6.9769 9.36085 6.81338 9.42858 6.64289 9.42858C6.47239 9.42858 6.30888 9.36085 6.18832 9.2403C6.06776 9.11974 6.00003 8.95622 6.00003 8.78573V7.7143H4.9286C4.75811 7.7143 4.59459 7.64657 4.47403 7.52601C4.35347 7.40545 4.28574 7.24194 4.28574 7.07144C4.28574 6.90095 4.35347 6.73743 4.47403 6.61687C4.59459 6.49631 4.75811 6.42858 4.9286 6.42858H6.00003V5.35716C6.00003 5.18666 6.06776 5.02315 6.18832 4.90259C6.30888 4.78203 6.47239 4.7143 6.64289 4.7143ZM16.9286 14.5714C17.0991 14.5714 17.2626 14.6392 17.3832 14.7597C17.5037 14.8803 17.5715 15.0438 17.5715 15.2143V16.2857H18.6429C18.8134 16.2857 18.9769 16.3535 19.0975 16.474C19.218 16.5946 19.2857 16.7581 19.2857 16.9286C19.2857 17.0991 19.218 17.2626 19.0975 17.3832C18.9769 17.5037 18.8134 17.5714 18.6429 17.5714H17.5715V18.6429C17.5715 18.8134 17.5037 18.9769 17.3832 19.0974C17.2626 19.218 17.0991 19.2857 16.9286 19.2857C16.7581 19.2857 16.5946 19.218 16.474 19.0974C16.3535 18.9769 16.2857 18.8134 16.2857 18.6429V17.5714H15.2143C15.0438 17.5714 14.8803 17.5037 14.7597 17.3832C14.6392 17.2626 14.5715 17.0991 14.5715 16.9286C14.5715 16.7581 14.6392 16.5946 14.7597 16.474C14.8803 16.3535 15.0438 16.2857 15.2143 16.2857H16.2857V15.2143C16.2857 15.0438 16.3535 14.8803 16.474 14.7597C16.5946 14.6392 16.7581 14.5714 16.9286 14.5714ZM16.8292 8.12401C16.6437 7.79156 16.3838 7.50659 16.0697 7.29146C15.7556 7.07634 15.396 6.9369 15.019 6.88408C14.642 6.83127 14.2579 6.86652 13.8968 6.98707C13.5357 7.10761 13.2074 7.31017 12.9377 7.57887L12.2109 8.3023L15.6969 11.7874L16.4169 11.0674C16.7966 10.6885 17.0423 10.1961 17.1167 9.66488C17.1911 9.13365 17.0902 8.59265 16.8292 8.12401ZM14.7866 12.696L11.3006 9.21001L2.40603 18.0754C1.94239 18.5378 1.68143 19.1655 1.68054 19.8203C1.67966 20.475 1.93893 21.1034 2.40132 21.567C2.8637 22.0307 3.49133 22.2916 4.14613 22.2925C4.80092 22.2934 5.42925 22.0341 5.89289 21.5717L14.7866 12.696Z" fill="#F42271"/>
</svg>
