<svg width="16" height="16" viewBox="0 0 16 16" fill="none" xmlns="http://www.w3.org/2000/svg">
  <path d="M13.9702 12.0535C14.0067 12.0543 14.0423 12.0655 14.0727 12.0856L13.9702 12.0535ZM13.9702 12.0535C12.7416 12.0457 11.5354 11.7233 10.466 11.1166L13.9702 12.0535Z" fill="black" stroke="black"/>
  <path d="M3.87891 8.1044C3.87891 8.54887 3.87891 9.8823 3.87891 9.43782C3.87891 8.67963 4.0125 7.97201 4.17476 7.24183C4.19571 7.14758 4.17893 7.83211 4.17893 8.01272C4.17893 8.34876 4.58809 8.3171 4.82064 8.59193C5.48223 9.37381 6.01098 10.2661 6.6166 11.1046C7.11568 11.7956 7.94046 11.9155 8.60424 12.3422C9.16559 12.7031 9.74143 12.6047 10.4044 12.6047C10.6419 12.6047 10.8794 12.6047 11.1169 12.6047C11.41 12.6047 11.6359 12.7398 11.9045 12.7547C12.3215 12.7779 11.7742 12.7547 11.6336 12.7547C11.2739 12.7547 10.9141 12.7547 10.5544 12.7547C10.3069 12.7547 9.15302 12.6322 9.05427 12.8297" stroke="black" stroke-width="3" stroke-linecap="round"/>
  <path d="M3.50385 9.75452C3.55503 10.2152 4.24478 11.0644 4.62892 11.313C4.93052 11.5081 5.05767 11.8923 5.34148 12.113C5.66232 12.3626 5.99572 12.6672 6.35405 12.8464C6.65922 12.999 7.04655 13.5048 7.36662 13.5048C7.86744 13.5048 8.72007 14.1471 9.22092 13.7465C9.42274 13.585 10.013 13.9001 10.1793 13.6923C10.3542 13.4737 10.8092 13.6701 10.9294 13.4298" stroke="black" stroke-width="3" stroke-linecap="round"/>
  <path d="M5.00396 5.02917C5.00396 5.82923 5.00396 6.62929 5.00396 7.42934C5.00396 7.72941 4.99237 8.32361 5.30398 8.47942" stroke="black" stroke-width="3" stroke-linecap="round"/>
  <path d="M3.87888 4.72916C3.7902 5.616 2.97882 6.32389 2.97882 7.20433C2.97882 8.13842 3.22422 9.051 3.27884 9.97953C3.30075 10.352 3.99797 10.6713 4.17891 10.9879C4.24984 11.1121 4.58198 11.3281 4.70811 11.4463C5.00941 11.7288 5.24471 12.0796 5.529 12.3797C5.59488 12.4492 6.16639 13.0066 6.01237 13.0506C5.71142 13.1366 5.12317 13.0906 4.89562 12.8631C4.78983 12.7573 4.92818 12.5441 4.81645 12.4547C4.73746 12.3915 4.71181 12.2208 4.64561 12.138C4.51145 11.9703 4.40392 11.6596 4.40392 11.4421C4.40392 11.1086 4.17891 10.8223 4.17891 10.5046C4.17891 10.1993 4.22645 10.4038 4.40392 10.4879C4.70648 10.6312 5.07019 10.5825 5.37899 10.7713C5.7669 11.0083 6.42906 11.3993 6.42906 11.9297C6.42906 12.2152 6.57682 12.5978 6.76659 12.8256C6.92125 13.0112 7.25412 12.9811 7.25412 13.2798C7.25412 13.6376 6.79434 13.5048 6.50407 13.5048" stroke="black" stroke-width="3" stroke-linecap="round"/>
  <path d="M13.5958 12.4537C13.6585 12.4537 13.7212 12.4537 13.7839 12.4537C13.7925 12.4537 13.8573 12.4507 13.8326 12.4646C13.7928 12.487 13.7633 12.5221 13.7351 12.5582C13.6588 12.6558 13.6151 12.8015 13.5262 12.8855C13.4996 12.9107 13.409 12.897 13.4287 12.8577" stroke="black" stroke-linecap="round"/>
  <path d="M7.11896 9.09692C7.20077 9.1713 7.32516 9.21582 7.41842 9.278C7.53998 9.35903 7.66072 9.44702 7.7589 9.55502C7.82568 9.62847 7.90897 9.67834 7.99105 9.73145C8.07888 9.78828 8.14715 9.85621 8.22551 9.92413C8.38979 10.0665 8.55941 10.2063 8.74552 10.3196C8.90467 10.4164 9.0701 10.4978 9.22528 10.6012C9.3676 10.6961 9.53373 10.7506 9.67332 10.8574C9.76964 10.931 9.88139 11.0168 9.98904 11.0748C10.1137 11.1419 10.239 11.2072 10.3643 11.2729C10.5064 11.3473 10.6491 11.398 10.7961 11.4648" stroke="black" stroke-linecap="round"/>
  <path d="M6.42256 7.50904C6.46947 7.51842 6.51775 7.57601 6.55875 7.60035C6.64834 7.65354 6.71246 7.71794 6.78161 7.79535C6.90023 7.92813 7.04329 8.05235 7.13293 8.20857C7.22338 8.36623 7.29534 8.5381 7.37745 8.70072C7.44969 8.84378 7.52186 8.98742 7.58638 9.13405C7.63125 9.23603 7.66066 9.35492 7.67537 9.46525C7.68513 9.53848 7.69791 9.55169 7.73186 9.60686C7.75253 9.64045 7.84916 9.76004 7.78061 9.66102C7.66938 9.50035 7.51722 9.38279 7.39602 9.23155C7.10034 8.8626 7.0185 8.44695 6.93792 7.99035C6.89199 7.73005 6.89766 7.42059 6.79864 7.17011C6.76459 7.084 6.63171 6.98231 6.55411 6.93797C6.43809 6.87167 6.30857 6.79599 6.22137 6.68802C6.16131 6.61366 6.11437 6.50653 6.04649 6.4435C6.00457 6.40458 5.98804 6.35159 5.93506 6.3251" stroke="black" stroke-linecap="round"/>
  <path d="M2.32178 10.9355C2.32178 11.5383 2.70829 12.071 3.03701 12.5458C3.18185 12.7551 3.42244 12.6813 3.6184 12.7989C3.73935 12.8715 3.98465 13.0059 4.12868 13.0059" stroke="black" stroke-linecap="round"/>
  <path d="M7.70484 8.75217C7.39491 8.75217 7.24659 8.46823 7.14855 8.19588C7.05056 7.92368 6.86573 7.67491 6.71774 7.42628C6.63244 7.28298 6.4911 7.15057 6.42495 7.00174C6.38443 6.91057 6.24871 6.82123 6.23673 6.71941C6.22502 6.61986 6.11158 6.54207 6.08825 6.43708C6.0643 6.32932 6.02016 6.2369 5.98159 6.12547C5.90885 5.91535 5.68363 5.69318 5.55914 5.50644C5.48384 5.39349 5.42995 5.23578 5.41066 5.10073C5.37949 4.88256 5.54635 4.96075 5.68044 5.04217C6.03692 5.2586 6.31709 5.56501 6.5086 5.92889C6.63199 6.16333 6.61317 6.38217 6.61317 6.64412" stroke="black" stroke-linecap="round"/>
  <path d="M3.94043 3.82083C3.94043 3.37091 4.12988 2.78501 4.54691 2.5765C4.96058 2.36966 5.32177 2.05157 5.78497 2.05157" stroke="black" stroke-linecap="round"/>
  <path d="M4.88155 4.0467C4.88155 3.94358 4.83781 3.74324 4.94011 3.68909C5.03221 3.64032 5.12533 3.59838 5.20361 3.53433C5.30566 3.45083 5.44349 3.26164 5.51313 3.14325C5.56153 3.06096 5.65075 3.00437 5.70971 2.92575C5.83836 2.75422 5.94031 2.60063 6.04851 2.41129C6.08211 2.35248 6.17031 2.28526 6.23672 2.27744C6.3026 2.26969 6.34966 2.1455 6.34966 2.16451" stroke="black" stroke-linecap="round"/>
  <path d="M4.05334 3.93377C4.26756 3.71955 4.49626 3.4409 4.7142 3.2541C4.78611 3.19246 4.81536 2.93037 4.91915 2.91739C5.02185 2.90456 5.1392 2.60033 5.25795 2.54095" stroke="black" stroke-linecap="round"/>
  <path d="M5.74731 5.81596C5.74731 5.36219 5.74746 4.90923 5.80378 4.45869C5.83073 4.24313 5.83232 4.0434 5.78705 3.83966C5.71956 3.53596 6.01214 3.25797 6.19067 3.0596C6.26116 2.98129 6.19904 2.79727 6.19904 2.86093C6.19904 3.05829 6.17914 3.26754 6.21786 3.46113C6.31198 3.93172 6.4249 4.4691 6.4249 4.95015" stroke="black" stroke-linecap="round"/>
</svg>