<svg width="16" height="16" viewBox="0 0 16 16" fill="none" xmlns="http://www.w3.org/2000/svg">
  <path d="M13.5602 6.21334L4.22683 1.54667C3.85849 1.36334 3.44258 1.29808 3.03579 1.35977C2.629 1.42147 2.25114 1.60712 1.95372 1.89141C1.6563 2.17571 1.4538 2.54482 1.37383 2.94841C1.29385 3.352 1.3403 3.77044 1.50683 4.14667L3.10683 7.72667C3.14314 7.81323 3.16183 7.90615 3.16183 8C3.16183 8.09386 3.14314 8.18678 3.10683 8.27334L1.50683 11.8533C1.3713 12.1578 1.314 12.4913 1.34015 12.8236C1.3663 13.1558 1.47506 13.4763 1.65655 13.7558C1.83805 14.0353 2.08652 14.2651 2.37938 14.4241C2.67224 14.5832 3.00022 14.6666 3.3335 14.6667C3.64565 14.6636 3.95316 14.5907 4.2335 14.4533L13.5668 9.78667C13.8979 9.62013 14.1762 9.36487 14.3706 9.04939C14.5651 8.73391 14.668 8.3706 14.668 8C14.668 7.62941 14.5651 7.2661 14.3706 6.95062C14.1762 6.63513 13.8979 6.37988 13.5668 6.21334H13.5602ZM12.9668 8.59334L3.6335 13.26C3.51094 13.3189 3.37332 13.3388 3.23909 13.3172C3.10486 13.2957 2.98044 13.2335 2.88251 13.1392C2.78458 13.0449 2.71782 12.9229 2.69119 12.7896C2.66455 12.6563 2.67932 12.518 2.7335 12.3933L4.32683 8.81334C4.34746 8.76553 4.36527 8.71656 4.38016 8.66667H8.9735C9.15031 8.66667 9.31988 8.59643 9.4449 8.47141C9.56993 8.34639 9.64016 8.17682 9.64016 8C9.64016 7.82319 9.56993 7.65362 9.4449 7.5286C9.31988 7.40358 9.15031 7.33334 8.9735 7.33334H4.38016C4.36527 7.28345 4.34746 7.23448 4.32683 7.18667L2.7335 3.60667C2.67932 3.48198 2.66455 3.3437 2.69119 3.21038C2.71782 3.07706 2.78458 2.95507 2.88251 2.86077C2.98044 2.76647 3.10486 2.70436 3.23909 2.68277C3.37332 2.66119 3.51094 2.68116 3.6335 2.74L12.9668 7.40667C13.076 7.46262 13.1677 7.54761 13.2317 7.6523C13.2957 7.75699 13.3295 7.87731 13.3295 8C13.3295 8.1227 13.2957 8.24302 13.2317 8.34771C13.1677 8.4524 13.076 8.53739 12.9668 8.59334Z" fill="#737373"/>
</svg>