<svg width="16" height="16" viewBox="0 0 16 16" fill="none" xmlns="http://www.w3.org/2000/svg">
<g id="uil:message">
<path id="Vector" d="M13.5599 6.21334L4.22659 1.54667C3.85825 1.36334 3.44233 1.29808 3.03554 1.35977C2.62876 1.42147 2.25089 1.60712 1.95347 1.89141C1.65606 2.17571 1.45356 2.54482 1.37358 2.94841C1.29361 3.352 1.34006 3.77044 1.50659 4.14667L3.10659 7.72667C3.14289 7.81323 3.16159 7.90615 3.16159 8C3.16159 8.09386 3.14289 8.18678 3.10659 8.27334L1.50659 11.8533C1.37105 12.1578 1.31376 12.4913 1.33991 12.8236C1.36605 13.1558 1.47482 13.4763 1.65631 13.7558C1.8378 14.0353 2.08627 14.2651 2.37914 14.4241C2.672 14.5832 2.99998 14.6666 3.33325 14.6667C3.64541 14.6636 3.95291 14.5907 4.23325 14.4533L13.5666 9.78667C13.8977 9.62013 14.1759 9.36487 14.3704 9.04939C14.5648 8.73391 14.6678 8.3706 14.6678 8C14.6678 7.62941 14.5648 7.2661 14.3704 6.95062C14.1759 6.63513 13.8977 6.37988 13.5666 6.21334H13.5599ZM12.9666 8.59334L3.63325 13.26C3.5107 13.3189 3.37308 13.3388 3.23885 13.3172C3.10462 13.2957 2.98019 13.2335 2.88226 13.1392C2.78433 13.0449 2.71757 12.9229 2.69094 12.7896C2.66431 12.6563 2.67907 12.518 2.73325 12.3933L4.32659 8.81334C4.34721 8.76553 4.36502 8.71656 4.37992 8.66667H8.97325C9.15006 8.66667 9.31963 8.59643 9.44466 8.47141C9.56968 8.34639 9.63992 8.17682 9.63992 8C9.63992 7.82319 9.56968 7.65362 9.44466 7.5286C9.31963 7.40358 9.15006 7.33334 8.97325 7.33334H4.37992C4.36502 7.28345 4.34721 7.23448 4.32659 7.18667L2.73325 3.60667C2.67907 3.48198 2.66431 3.3437 2.69094 3.21038C2.71757 3.07706 2.78433 2.95507 2.88226 2.86077C2.98019 2.76647 3.10462 2.70436 3.23885 2.68277C3.37308 2.66119 3.5107 2.68116 3.63325 2.74L12.9666 7.40667C13.0758 7.46262 13.1674 7.54761 13.2314 7.6523C13.2954 7.75699 13.3293 7.87731 13.3293 8C13.3293 8.1227 13.2954 8.24302 13.2314 8.34771C13.1674 8.4524 13.0758 8.53739 12.9666 8.59334Z" fill="#F2F2F2"/>
</g>
</svg>
