<svg width="8" height="8" viewBox="0 0 8 8" fill="none" xmlns="http://www.w3.org/2000/svg">
<path d="M0.967969 2.38281C1.0513 2.29948 1.14997 2.25781 1.26397 2.25781C1.37797 2.25781 1.47652 2.29948 1.55964 2.38281L4.0013 4.82448L6.4513 2.37448C6.52908 2.2967 6.6263 2.25781 6.74297 2.25781C6.85964 2.25781 6.95964 2.29948 7.04297 2.38281C7.1263 2.46615 7.16797 2.56481 7.16797 2.67881C7.16797 2.79281 7.1263 2.89137 7.04297 2.97448L4.23464 5.77448C4.2013 5.80781 4.16519 5.83148 4.1263 5.84548C4.08741 5.85948 4.04575 5.86637 4.0013 5.86615C3.95686 5.86615 3.91519 5.85915 3.8763 5.84515C3.83741 5.83115 3.8013 5.80759 3.76797 5.77448L0.959636 2.96615C0.881858 2.88837 0.842969 2.79248 0.842969 2.67848C0.842969 2.56448 0.884635 2.46592 0.967969 2.38281Z" fill="white"/>
</svg> 