<svg width="16" height="16" viewBox="0 0 16 16" fill="none" xmlns="http://www.w3.org/2000/svg">
<path fill-rule="evenodd" clip-rule="evenodd" d="M8 5.5C7.33696 5.5 6.70107 5.76339 6.23223 6.23223C5.76339 6.70107 5.5 7.33696 5.5 8C5.5 8.66304 5.76339 9.29893 6.23223 9.76777C6.70107 10.2366 7.33696 10.5 8 10.5C8.66304 10.5 9.29893 10.2366 9.76777 9.76777C10.2366 9.29893 10.5 8.66304 10.5 8C10.5 7.33696 10.2366 6.70107 9.76777 6.23223C9.29893 5.76339 8.66304 5.5 8 5.5ZM6.5 8C6.5 7.60218 6.65804 7.22064 6.93934 6.93934C7.22064 6.65804 7.60218 6.5 8 6.5C8.39782 6.5 8.77936 6.65804 9.06066 6.93934C9.34196 7.22064 9.5 7.60218 9.5 8C9.5 8.39782 9.34196 8.77936 9.06066 9.06066C8.77936 9.34196 8.39782 9.5 8 9.5C7.60218 9.5 7.22064 9.34196 6.93934 9.06066C6.65804 8.77936 6.5 8.39782 6.5 8Z" fill="black"/>
<path fill-rule="evenodd" clip-rule="evenodd" d="M7.98335 0.833344C7.68668 0.833344 7.43935 0.833343 7.23668 0.846677C7.02952 0.855303 6.82521 0.898102 6.63201 0.973344C6.40951 1.0654 6.20733 1.20039 6.037 1.3706C5.86668 1.54081 5.73155 1.74291 5.63935 1.96534C5.54268 2.19868 5.51668 2.44534 5.50601 2.71334C5.50495 2.81136 5.479 2.90749 5.43061 2.99273C5.38221 3.07798 5.31296 3.14953 5.22935 3.20068C5.14327 3.24768 5.04666 3.27203 4.94858 3.27145C4.85051 3.27087 4.75419 3.24537 4.66868 3.19734C4.43135 3.07201 4.20468 2.97134 3.95401 2.93801C3.71531 2.90661 3.47276 2.92254 3.24021 2.98488C3.00766 3.04722 2.78967 3.15475 2.59868 3.30134C2.4372 3.43126 2.29822 3.5869 2.18735 3.76201C2.07401 3.93134 1.95001 4.14534 1.80201 4.40201L1.78535 4.43134C1.63668 4.68801 1.51335 4.90201 1.42401 5.08468C1.33068 5.27534 1.25735 5.46334 1.23068 5.67134C1.16708 6.15334 1.29753 6.64086 1.59335 7.02668C1.74735 7.22734 1.94801 7.37334 2.17468 7.51601C2.25919 7.56597 2.32959 7.63661 2.37928 7.72128C2.42896 7.80595 2.45628 7.90187 2.45868 8.00001C2.45628 8.09815 2.42896 8.19407 2.37928 8.27874C2.32959 8.36341 2.25919 8.43405 2.17468 8.48401C1.94801 8.62668 1.74801 8.77268 1.59335 8.97334C1.44676 9.16433 1.33922 9.38233 1.27688 9.61487C1.21454 9.84742 1.19861 10.09 1.23001 10.3287C1.25735 10.5367 1.33001 10.7247 1.42335 10.9153C1.51335 11.098 1.63668 11.312 1.78535 11.5687L1.80201 11.598C1.95001 11.8547 2.07401 12.0687 2.18735 12.238C2.30535 12.4133 2.43201 12.5713 2.59868 12.698C2.78962 12.8447 3.00759 12.9524 3.24014 13.0148C3.47269 13.0773 3.71527 13.0933 3.95401 13.062C4.20468 13.0287 4.43135 12.9287 4.66868 12.8027C4.75409 12.7547 4.85029 12.7292 4.94825 12.7287C5.04621 12.7281 5.1427 12.7524 5.22868 12.7993C5.31276 12.8501 5.38245 12.9215 5.43111 13.0068C5.47977 13.0921 5.50579 13.1885 5.50668 13.2867C5.51668 13.5547 5.54268 13.8013 5.64001 14.0347C5.73207 14.2572 5.86706 14.4594 6.03727 14.6297C6.20748 14.8 6.40957 14.9351 6.63201 15.0273C6.82535 15.1073 7.02535 15.1387 7.23668 15.1527C7.43935 15.1667 7.68668 15.1667 7.98335 15.1667H8.01668C8.31335 15.1667 8.56068 15.1667 8.76335 15.1533C8.97535 15.1387 9.17468 15.1073 9.36801 15.0267C9.59051 14.9346 9.7927 14.7996 9.96302 14.6294C10.1333 14.4592 10.2685 14.2571 10.3607 14.0347C10.4573 13.8013 10.4833 13.5547 10.494 13.2867C10.495 13.1885 10.5209 13.0923 10.5693 13.0069C10.6177 12.9215 10.687 12.8499 10.7707 12.7987C10.8568 12.7518 10.9535 12.7275 11.0515 12.7282C11.1496 12.7289 11.2459 12.7546 11.3313 12.8027C11.5687 12.928 11.7953 13.0287 12.046 13.0613C12.528 13.1249 13.0155 12.9945 13.4013 12.6987C13.568 12.5707 13.6947 12.4133 13.8127 12.238C13.926 12.0687 14.05 11.8547 14.198 11.598L14.2147 11.5687C14.3633 11.312 14.4867 11.098 14.576 10.9153C14.6693 10.7247 14.7427 10.536 14.7693 10.3287C14.8329 9.84668 14.7025 9.35916 14.4067 8.97334C14.2527 8.77268 14.052 8.62668 13.8253 8.48401C13.7408 8.43405 13.6704 8.36341 13.6208 8.27874C13.5711 8.19407 13.5437 8.09815 13.5413 8.00001C13.5413 7.81468 13.6427 7.63068 13.8253 7.51601C14.052 7.37334 14.252 7.22734 14.4067 7.02668C14.5533 6.83569 14.6608 6.6177 14.7231 6.38515C14.7855 6.1526 14.8014 5.91005 14.77 5.67134C14.7383 5.46648 14.673 5.26826 14.5767 5.08468C14.4629 4.86318 14.3421 4.64529 14.2147 4.43134L14.198 4.40201C14.0762 4.18474 13.9477 3.9713 13.8127 3.76201C13.7018 3.58709 13.5628 3.43167 13.4013 3.30201C13.2104 3.1553 12.9924 3.04765 12.7599 2.98519C12.5273 2.92274 12.2848 2.90671 12.046 2.93801C11.7953 2.97134 11.5687 3.07134 11.3313 3.19734C11.2459 3.24525 11.1497 3.27068 11.0518 3.27126C10.9538 3.27185 10.8573 3.24756 10.7713 3.20068C10.6875 3.14969 10.618 3.07821 10.5693 2.99296C10.5207 2.9077 10.4946 2.81148 10.4933 2.71334C10.4833 2.44534 10.4573 2.19868 10.36 1.96534C10.268 1.74284 10.133 1.54066 9.96276 1.37033C9.79255 1.20001 9.59045 1.06489 9.36801 0.972677C9.17468 0.892677 8.97468 0.861344 8.76335 0.847344C8.56068 0.833344 8.31335 0.833344 8.01668 0.833344H7.98335ZM7.01468 1.89668C7.06601 1.87534 7.14401 1.85601 7.30468 1.84468C7.46935 1.83334 7.68268 1.83334 8.00001 1.83334C8.31735 1.83334 8.53068 1.83334 8.69535 1.84468C8.85601 1.85601 8.93401 1.87534 8.98535 1.89668C9.19001 1.98134 9.35201 2.14334 9.43668 2.34801C9.46335 2.41201 9.48535 2.51268 9.49401 2.75068C9.51401 3.27868 9.78668 3.78734 10.2707 4.06668C10.7547 4.34668 11.3313 4.32801 11.7987 4.08134C12.0093 3.97001 12.1073 3.93868 12.1767 3.93001C12.3957 3.90107 12.6173 3.9603 12.7927 4.09468C12.8367 4.12868 12.8927 4.18668 12.9827 4.32001C13.0753 4.45734 13.182 4.64201 13.3407 4.91668C13.4993 5.19134 13.6053 5.37668 13.678 5.52468C13.7493 5.66934 13.7713 5.74668 13.778 5.80201C13.807 6.02105 13.7477 6.24263 13.6133 6.41801C13.5707 6.47334 13.4947 6.54268 13.2933 6.66934C12.8453 6.95068 12.5413 7.44134 12.5413 8.00001C12.5413 8.55868 12.8453 9.04934 13.2933 9.33068C13.4947 9.45734 13.5707 9.52668 13.6133 9.58201C13.748 9.75734 13.8067 9.97868 13.778 10.198C13.7713 10.2533 13.7487 10.3313 13.678 10.4753C13.6053 10.624 13.4993 10.8087 13.3407 11.0833C13.182 11.358 13.0747 11.5427 12.9827 11.68C12.8927 11.8133 12.8367 11.8713 12.7927 11.9053C12.6173 12.0397 12.3957 12.099 12.1767 12.07C12.1073 12.0613 12.01 12.03 11.7987 11.9187C11.332 11.672 10.7547 11.6533 10.2707 11.9327C9.78668 12.2127 9.51401 12.7213 9.49401 13.2493C9.48535 13.4873 9.46335 13.588 9.43668 13.652C9.3948 13.7532 9.33338 13.8452 9.25594 13.9226C9.17849 14 9.08654 14.0615 8.98535 14.1033C8.93401 14.1247 8.85601 14.144 8.69535 14.1553C8.53068 14.1667 8.31735 14.1667 8.00001 14.1667C7.68268 14.1667 7.46935 14.1667 7.30468 14.1553C7.14401 14.144 7.06601 14.1247 7.01468 14.1033C6.91348 14.0615 6.82153 14 6.74409 13.9226C6.66665 13.8452 6.60523 13.7532 6.56335 13.652C6.53668 13.588 6.51468 13.4873 6.50601 13.2493C6.48601 12.7213 6.21335 12.2127 5.72935 11.9333C5.24535 11.6533 4.66868 11.672 4.20135 11.9187C3.99068 12.03 3.89268 12.0613 3.82335 12.07C3.6043 12.099 3.38273 12.0397 3.20735 11.9053C3.16335 11.8713 3.10735 11.8133 3.01735 11.68C2.89195 11.4848 2.77256 11.2858 2.65935 11.0833C2.50068 10.8087 2.39468 10.6233 2.32201 10.4753C2.25068 10.3307 2.22868 10.2533 2.22201 10.198C2.19307 9.97897 2.2523 9.75739 2.38668 9.58201C2.42935 9.52668 2.50535 9.45734 2.70668 9.33068C3.15468 9.04934 3.45868 8.55868 3.45868 8.00001C3.45868 7.44134 3.15468 6.95068 2.70668 6.66934C2.50535 6.54268 2.42935 6.47334 2.38668 6.41801C2.2523 6.24263 2.19307 6.02105 2.22201 5.80201C2.22868 5.74668 2.25135 5.66868 2.32201 5.52468C2.39468 5.37601 2.50068 5.19134 2.65935 4.91668C2.81801 4.64201 2.92535 4.45734 3.01735 4.32001C3.10735 4.18668 3.16335 4.12868 3.20735 4.09468C3.38273 3.9603 3.6043 3.90107 3.82335 3.93001C3.89268 3.93868 3.99001 3.97001 4.20135 4.08134C4.66801 4.32801 5.24535 4.34668 5.72935 4.06668C6.21335 3.78734 6.48601 3.27868 6.50601 2.75068C6.51468 2.51268 6.53668 2.41201 6.56335 2.34801C6.64801 2.14334 6.81001 1.98134 7.01468 1.89668Z" fill="black"/>
</svg>
