<svg width="8" height="8" viewBox="0 0 8 8" fill="none" xmlns="http://www.w3.org/2000/svg">
<g id="material-symbols:arrow-forward-ios-rounded">
<path id="Vector" d="M5.61719 0.967969C5.70052 1.0513 5.74219 1.14997 5.74219 1.26397C5.74219 1.37797 5.70052 1.47652 5.61719 1.55964L3.17552 4.0013L5.62552 6.4513C5.7033 6.52908 5.74219 6.6263 5.74219 6.74297C5.74219 6.85964 5.70052 6.95964 5.61719 7.04297C5.53385 7.1263 5.43519 7.16797 5.32119 7.16797C5.20719 7.16797 5.10863 7.1263 5.02552 7.04297L2.22552 4.23464C2.19219 4.2013 2.16852 4.16519 2.15452 4.1263C2.14052 4.08741 2.13363 4.04575 2.13385 4.0013C2.13385 3.95686 2.14085 3.91519 2.15485 3.8763C2.16885 3.83741 2.19241 3.8013 2.22552 3.76797L5.03385 0.959636C5.11163 0.881858 5.20752 0.842969 5.32152 0.842969C5.43552 0.842969 5.53408 0.884635 5.61719 0.967969Z" fill="black"/>
</g>
</svg>
