<svg width="8" height="8" viewBox="0 0 8 8" fill="none" xmlns="http://www.w3.org/2000/svg">
<path d="M6.51628 5.98474C6.58672 6.05519 6.6263 6.15074 6.6263 6.25037C6.6263 6.35 6.58672 6.44554 6.51628 6.51599C6.44583 6.58644 6.35028 6.62602 6.25065 6.62602C6.15102 6.62602 6.05547 6.58644 5.98503 6.51599L4.00096 4.5313L2.01628 6.51537C1.94583 6.58582 1.85028 6.62539 1.75065 6.62539C1.65102 6.62539 1.55547 6.58582 1.48503 6.51537C1.41458 6.44492 1.375 6.34937 1.375 6.24974C1.375 6.15011 1.41458 6.05457 1.48503 5.98412L3.46971 4.00005L1.48565 2.01537C1.4152 1.94492 1.37563 1.84937 1.37563 1.74974C1.37563 1.65011 1.4152 1.55457 1.48565 1.48412C1.5561 1.41367 1.65165 1.37409 1.75128 1.37409C1.8509 1.37409 1.94645 1.41367 2.0169 1.48412L4.00096 3.4688L5.98565 1.4838C6.0561 1.41336 6.15165 1.37378 6.25128 1.37378C6.3509 1.37378 6.44645 1.41336 6.5169 1.4838C6.58735 1.55425 6.62693 1.6498 6.62693 1.74943C6.62693 1.84906 6.58735 1.94461 6.5169 2.01505L4.53221 4.00005L6.51628 5.98474Z" fill="#8F00FF"/>
</svg> 