<svg width="24" height="24" viewBox="0 0 24 24" fill="none" xmlns="http://www.w3.org/2000/svg">
<path d="M22.3846 20.6906L18.3298 16.6477C19.638 14.981 20.3479 12.9228 20.3452 10.8039C20.3452 8.91696 19.7857 7.07234 18.7373 5.50337C17.689 3.9344 16.1989 2.71153 14.4556 1.98941C12.7122 1.26729 10.7939 1.07835 8.94315 1.44648C7.09242 1.81462 5.39241 2.72329 4.05811 4.05759C2.7238 5.3919 1.81513 7.0919 1.447 8.94263C1.07887 10.7934 1.26781 12.7117 1.98993 14.455C2.71204 16.1984 3.93491 17.6885 5.50388 18.7368C7.07286 19.7852 8.91747 20.3447 10.8045 20.3447C12.9233 20.3474 14.9815 19.6375 16.6482 18.3292L20.6911 22.3841C20.802 22.4959 20.9339 22.5846 21.0792 22.6451C21.2245 22.7057 21.3804 22.7368 21.5378 22.7368C21.6953 22.7368 21.8512 22.7057 21.9965 22.6451C22.1418 22.5846 22.2737 22.4959 22.3846 22.3841C22.4964 22.2732 22.5851 22.1413 22.6456 21.996C22.7062 21.8506 22.7374 21.6948 22.7374 21.5373C22.7374 21.3799 22.7062 21.224 22.6456 21.0787C22.5851 20.9334 22.4964 20.8015 22.3846 20.6906ZM3.64887 10.8039C3.64887 9.3887 4.06854 8.00524 4.85481 6.82851C5.64107 5.65178 6.75862 4.73463 8.06614 4.19304C9.37365 3.65145 10.8124 3.50975 12.2004 3.78585C13.5885 4.06195 14.8635 4.74345 15.8642 5.74418C16.865 6.74491 17.5465 8.01991 17.8226 9.40796C18.0987 10.796 17.957 12.2348 17.4154 13.5423C16.8738 14.8498 15.9566 15.9673 14.7799 16.7536C13.6032 17.5399 12.2197 17.9595 10.8045 17.9595C8.90668 17.9595 7.08663 17.2056 5.7447 15.8637C4.40276 14.5218 3.64887 12.7017 3.64887 10.8039Z" fill="#737373"/>
</svg>
