<svg width="16" height="12" viewBox="0 0 16 12" fill="none" xmlns="http://www.w3.org/2000/svg">
<path d="M12.9 4.69332C12.6761 3.55847 12.0651 2.53656 11.1714 1.80215C10.2777 1.06775 9.15674 0.666395 8 0.666657C6.07333 0.666657 4.4 1.75999 3.56667 3.35999C2.58682 3.46588 1.68067 3.93013 1.02233 4.66354C0.363981 5.39695 -0.000114468 6.34777 2.69952e-08 7.33332C2.69952e-08 9.53999 1.79333 11.3333 4 11.3333H12.6667C14.5067 11.3333 16 9.83999 16 7.99999C16 6.23999 14.6333 4.81332 12.9 4.69332ZM9.33333 6.66666V9.33332H6.66667V6.66666H4.66667L8 3.33332L11.3333 6.66666H9.33333Z" fill="white"/>
</svg>
