<svg width="16" height="16" viewBox="0 0 16 16" fill="none" xmlns="http://www.w3.org/2000/svg">
<path d="M12.9 6.69463C12.6761 5.55978 12.0651 4.53787 11.1714 3.80347C10.2777 3.06906 9.15674 2.66771 8 2.66797C6.07333 2.66797 4.4 3.7613 3.56667 5.3613C2.58682 5.46719 1.68067 5.93144 1.02233 6.66485C0.363981 7.39826 -0.000114468 8.34909 2.69952e-08 9.33463C2.69952e-08 11.5413 1.79333 13.3346 4 13.3346H12.6667C14.5067 13.3346 16 11.8413 16 10.0013C16 8.2413 14.6333 6.81464 12.9 6.69463ZM9.33333 8.66797V11.3346H6.66667V8.66797H4.66667L8 5.33464L11.3333 8.66797H9.33333Z" fill="white"/>
</svg>
