<svg width="24" height="24" viewBox="0 0 24 24" fill="none" xmlns="http://www.w3.org/2000/svg">
<g clip-path="url(#clip0_1433_244)">
<path fill-rule="evenodd" clip-rule="evenodd" d="M16 14C17.3261 14 18.5979 14.5268 19.5355 15.4645C20.4732 16.4021 21 17.6739 21 19V21C21 21.2652 20.8946 21.5196 20.7071 21.7071C20.5196 21.8946 20.2652 22 20 22C19.7348 22 19.4804 21.8946 19.2929 21.7071C19.1054 21.5196 19 21.2652 19 21V19C19 18.2044 18.6839 17.4413 18.1213 16.8787C17.5587 16.3161 16.7956 16 16 16H8C7.20435 16 6.44129 16.3161 5.87868 16.8787C5.31607 17.4413 5 18.2044 5 19V21C5 21.2652 4.89464 21.5196 4.70711 21.7071C4.51957 21.8946 4.26522 22 4 22C3.73478 22 3.48043 21.8946 3.29289 21.7071C3.10536 21.5196 3 21.2652 3 21V19C3 17.6739 3.52678 16.4021 4.46447 15.4645C5.40215 14.5268 6.67392 14 8 14H16ZM21.414 9.081C21.5935 8.89975 21.8356 8.79397 22.0905 8.78532C22.3455 8.77667 22.5942 8.8658 22.7856 9.03447C22.977 9.20313 23.0967 9.43858 23.1202 9.69262C23.1437 9.94666 23.0692 10.2001 22.912 10.401L22.828 10.496L20 13.323C19.8278 13.4952 19.5987 13.5986 19.3557 13.6139C19.1127 13.6292 18.8724 13.5553 18.68 13.406L18.586 13.323L17.172 11.909C16.9907 11.7295 16.885 11.4874 16.8763 11.2325C16.8677 10.9775 16.9568 10.7288 17.1255 10.5374C17.2941 10.346 17.5296 10.2263 17.7836 10.2028C18.0377 10.1793 18.2911 10.2538 18.492 10.411L18.586 10.494L19.293 11.202L21.414 9.08V9.081ZM12 2C13.3261 2 14.5979 2.52678 15.5355 3.46447C16.4732 4.40215 17 5.67392 17 7C17 8.32608 16.4732 9.59785 15.5355 10.5355C14.5979 11.4732 13.3261 12 12 12C10.6739 12 9.40215 11.4732 8.46447 10.5355C7.52678 9.59785 7 8.32608 7 7C7 5.67392 7.52678 4.40215 8.46447 3.46447C9.40215 2.52678 10.6739 2 12 2ZM12 4C11.606 4 11.2159 4.0776 10.8519 4.22836C10.488 4.37913 10.1573 4.6001 9.87868 4.87868C9.6001 5.15726 9.37913 5.48797 9.22836 5.85195C9.0776 6.21593 9 6.60603 9 7C9 7.39397 9.0776 7.78407 9.22836 8.14805C9.37913 8.51203 9.6001 8.84274 9.87868 9.12132C10.1573 9.3999 10.488 9.62087 10.8519 9.77164C11.2159 9.9224 11.606 10 12 10C12.7956 10 13.5587 9.68393 14.1213 9.12132C14.6839 8.55871 15 7.79565 15 7C15 6.20435 14.6839 5.44129 14.1213 4.87868C13.5587 4.31607 12.7956 4 12 4Z" fill="#737373"/>
</g>
<defs>
<clipPath id="clip0_1433_244">
<rect width="24" height="24" fill="white"/>
</clipPath>
</defs>
</svg>
