<svg width="16" height="16" viewBox="0 0 16 16" fill="none" xmlns="http://www.w3.org/2000/svg">
<path d="M7.99984 4.66666C6.15984 4.66666 4.6665 6.15999 4.6665 7.99999C4.6665 9.83999 6.15984 11.3333 7.99984 11.3333C9.83984 11.3333 11.3332 9.83999 11.3332 7.99999C11.3332 6.15999 9.83984 4.66666 7.99984 4.66666ZM1.33317 8.66666H2.6665C3.03317 8.66666 3.33317 8.36666 3.33317 7.99999C3.33317 7.63332 3.03317 7.33332 2.6665 7.33332H1.33317C0.966504 7.33332 0.666504 7.63332 0.666504 7.99999C0.666504 8.36666 0.966504 8.66666 1.33317 8.66666ZM13.3332 8.66666H14.6665C15.0332 8.66666 15.3332 8.36666 15.3332 7.99999C15.3332 7.63332 15.0332 7.33332 14.6665 7.33332H13.3332C12.9665 7.33332 12.6665 7.63332 12.6665 7.99999C12.6665 8.36666 12.9665 8.66666 13.3332 8.66666ZM7.33317 1.33332V2.66666C7.33317 3.03332 7.63317 3.33332 7.99984 3.33332C8.3665 3.33332 8.6665 3.03332 8.6665 2.66666V1.33332C8.6665 0.966657 8.3665 0.666656 7.99984 0.666656C7.63317 0.666656 7.33317 0.966657 7.33317 1.33332ZM7.33317 13.3333V14.6667C7.33317 15.0333 7.63317 15.3333 7.99984 15.3333C8.3665 15.3333 8.6665 15.0333 8.6665 14.6667V13.3333C8.6665 12.9667 8.3665 12.6667 7.99984 12.6667C7.63317 12.6667 7.33317 12.9667 7.33317 13.3333ZM3.99317 3.05332C3.93149 2.99152 3.85824 2.94249 3.77759 2.90903C3.69694 2.87558 3.61048 2.85836 3.52317 2.85836C3.43586 2.85836 3.3494 2.87558 3.26875 2.90903C3.18811 2.94249 3.11485 2.99152 3.05317 3.05332C2.99137 3.115 2.94234 3.18826 2.90888 3.26891C2.87543 3.34956 2.85821 3.43601 2.85821 3.52332C2.85821 3.61064 2.87543 3.69709 2.90888 3.77774C2.94234 3.85839 2.99137 3.93165 3.05317 3.99332L3.75984 4.69999C4.01984 4.95999 4.4465 4.95999 4.69984 4.69999C4.95317 4.43999 4.95984 4.01332 4.69984 3.75999L3.99317 3.05332ZM12.2398 11.3C12.1782 11.2382 12.1049 11.1892 12.0243 11.1557C11.9436 11.1222 11.8572 11.105 11.7698 11.105C11.6825 11.105 11.5961 11.1222 11.5154 11.1557C11.4348 11.1892 11.3615 11.2382 11.2998 11.3C11.238 11.3617 11.189 11.4349 11.1556 11.5156C11.1221 11.5962 11.1049 11.6827 11.1049 11.77C11.1049 11.8573 11.1221 11.9438 11.1556 12.0244C11.189 12.1051 11.238 12.1783 11.2998 12.24L12.0065 12.9467C12.2665 13.2067 12.6932 13.2067 12.9465 12.9467C13.0083 12.885 13.0573 12.8117 13.0908 12.7311C13.1242 12.6504 13.1415 12.564 13.1415 12.4767C13.1415 12.3893 13.1242 12.3029 13.0908 12.2222C13.0573 12.1416 13.0083 12.0683 12.9465 12.0067L12.2398 11.3ZM12.9465 3.99332C13.0083 3.93165 13.0573 3.85839 13.0908 3.77774C13.1242 3.69709 13.1415 3.61064 13.1415 3.52332C13.1415 3.43601 13.1242 3.34956 13.0908 3.26891C13.0573 3.18826 13.0083 3.115 12.9465 3.05332C12.8848 2.99152 12.8116 2.94249 12.7309 2.90903C12.6503 2.87558 12.5638 2.85836 12.4765 2.85836C12.3892 2.85836 12.3027 2.87558 12.2221 2.90903C12.1414 2.94249 12.0682 2.99152 12.0065 3.05332L11.2998 3.75999C11.0398 4.01999 11.0398 4.44666 11.2998 4.69999C11.5598 4.95332 11.9865 4.95999 12.2398 4.69999L12.9465 3.99332ZM4.69984 12.24C4.76164 12.1783 4.81067 12.1051 4.84413 12.0244C4.87758 11.9438 4.8948 11.8573 4.8948 11.77C4.8948 11.6827 4.87758 11.5962 4.84413 11.5156C4.81067 11.4349 4.76164 11.3617 4.69984 11.3C4.63816 11.2382 4.5649 11.1892 4.48425 11.1557C4.4036 11.1222 4.31715 11.105 4.22984 11.105C4.14252 11.105 4.05607 11.1222 3.97542 11.1557C3.89477 11.1892 3.82151 11.2382 3.75984 11.3L3.05317 12.0067C2.79317 12.2667 2.79317 12.6933 3.05317 12.9467C3.31317 13.2 3.73984 13.2067 3.99317 12.9467L4.69984 12.24Z" fill="white"/>
</svg>
