<svg width="17" height="17" viewBox="0 0 17 17" fill="none" xmlns="http://www.w3.org/2000/svg">
<path d="M15.8554 14.6558L12.9832 11.7921C13.9099 10.6115 14.4128 9.15364 14.4109 7.6528C14.4109 6.31619 14.0145 5.00959 13.272 3.89823C12.5294 2.78687 11.4739 1.92068 10.239 1.40917C9.00416 0.897673 7.64534 0.763841 6.3344 1.0246C5.02347 1.28536 3.8193 1.92901 2.87417 2.87414C1.92904 3.81927 1.28539 5.02344 1.02463 6.33437C0.763872 7.64531 0.897704 9.00413 1.4092 10.239C1.92071 11.4739 2.7869 12.5293 3.89826 13.2719C5.00962 14.0145 6.31622 14.4109 7.65283 14.4109C9.15368 14.4127 10.6116 13.9099 11.7921 12.9832L14.6559 15.8554C14.7344 15.9346 14.8278 15.9974 14.9308 16.0403C15.0337 16.0832 15.1441 16.1053 15.2556 16.1053C15.3672 16.1053 15.4776 16.0832 15.5805 16.0403C15.6835 15.9974 15.7769 15.9346 15.8554 15.8554C15.9346 15.7769 15.9974 15.6834 16.0403 15.5805C16.0832 15.4775 16.1053 15.3671 16.1053 15.2556C16.1053 15.1441 16.0832 15.0337 16.0403 14.9307C15.9974 14.8278 15.9346 14.7344 15.8554 14.6558ZM2.58429 7.6528C2.58429 6.65034 2.88156 5.67039 3.4385 4.83687C3.99543 4.00336 4.78703 3.35371 5.71319 2.97008C6.63934 2.58646 7.65846 2.48608 8.64166 2.68165C9.62486 2.87722 10.528 3.35996 11.2368 4.0688C11.9457 4.77765 12.4284 5.68078 12.624 6.66398C12.8196 7.64718 12.7192 8.6663 12.3356 9.59245C11.9519 10.5186 11.3023 11.3102 10.4688 11.8671C9.63525 12.4241 8.6553 12.7213 7.65283 12.7213C6.30857 12.7213 5.01937 12.1873 4.06883 11.2368C3.1183 10.2863 2.58429 8.99706 2.58429 7.6528Z" fill="white"/>
</svg>
